<svg id="mermaid-svg" width="100%" xmlns="http://www.w3.org/2000/svg" class="flowchart" style="max-width: 5348.375px;" viewBox="0 0 5348.375 1388" role="graphics-document document" aria-roledescription="flowchart-v2" xmlns:xlink="http://www.w3.org/1999/xlink"><style xmlns="http://www.w3.org/1999/xhtml">@import url("https://cdnjs.cloudflare.com/ajax/libs/font-awesome/6.7.2/css/all.min.css");</style><style>#mermaid-svg{font-family:"trebuchet ms",verdana,arial,sans-serif;font-size:16px;fill:#333;}@keyframes edge-animation-frame{from{stroke-dashoffset:0;}}@keyframes dash{to{stroke-dashoffset:0;}}#mermaid-svg .edge-animation-slow{stroke-dasharray:9,5!important;stroke-dashoffset:900;animation:dash 50s linear infinite;stroke-linecap:round;}#mermaid-svg .edge-animation-fast{stroke-dasharray:9,5!important;stroke-dashoffset:900;animation:dash 20s linear infinite;stroke-linecap:round;}#mermaid-svg .error-icon{fill:#552222;}#mermaid-svg .error-text{fill:#552222;stroke:#552222;}#mermaid-svg .edge-thickness-normal{stroke-width:1px;}#mermaid-svg .edge-thickness-thick{stroke-width:3.5px;}#mermaid-svg .edge-pattern-solid{stroke-dasharray:0;}#mermaid-svg .edge-thickness-invisible{stroke-width:0;fill:none;}#mermaid-svg .edge-pattern-dashed{stroke-dasharray:3;}#mermaid-svg .edge-pattern-dotted{stroke-dasharray:2;}#mermaid-svg .marker{fill:#333333;stroke:#333333;}#mermaid-svg .marker.cross{stroke:#333333;}#mermaid-svg svg{font-family:"trebuchet ms",verdana,arial,sans-serif;font-size:16px;}#mermaid-svg p{margin:0;}#mermaid-svg .label{font-family:"trebuchet ms",verdana,arial,sans-serif;color:#333;}#mermaid-svg .cluster-label text{fill:#333;}#mermaid-svg .cluster-label span{color:#333;}#mermaid-svg .cluster-label span p{background-color:transparent;}#mermaid-svg .label text,#mermaid-svg span{fill:#333;color:#333;}#mermaid-svg .node rect,#mermaid-svg .node circle,#mermaid-svg .node ellipse,#mermaid-svg .node polygon,#mermaid-svg .node path{fill:#ECECFF;stroke:#9370DB;stroke-width:1px;}#mermaid-svg .rough-node .label text,#mermaid-svg .node .label text,#mermaid-svg .image-shape .label,#mermaid-svg .icon-shape .label{text-anchor:middle;}#mermaid-svg .node .katex path{fill:#000;stroke:#000;stroke-width:1px;}#mermaid-svg .rough-node .label,#mermaid-svg .node .label,#mermaid-svg .image-shape .label,#mermaid-svg .icon-shape .label{text-align:center;}#mermaid-svg .node.clickable{cursor:pointer;}#mermaid-svg .root .anchor path{fill:#333333!important;stroke-width:0;stroke:#333333;}#mermaid-svg .arrowheadPath{fill:#333333;}#mermaid-svg .edgePath .path{stroke:#333333;stroke-width:2.0px;}#mermaid-svg .flowchart-link{stroke:#333333;fill:none;}#mermaid-svg .edgeLabel{background-color:rgba(232,232,232, 0.8);text-align:center;}#mermaid-svg .edgeLabel p{background-color:rgba(232,232,232, 0.8);}#mermaid-svg .edgeLabel rect{opacity:0.5;background-color:rgba(232,232,232, 0.8);fill:rgba(232,232,232, 0.8);}#mermaid-svg .labelBkg{background-color:rgba(232, 232, 232, 0.5);}#mermaid-svg .cluster rect{fill:#ffffde;stroke:#aaaa33;stroke-width:1px;}#mermaid-svg .cluster text{fill:#333;}#mermaid-svg .cluster span{color:#333;}#mermaid-svg div.mermaidTooltip{position:absolute;text-align:center;max-width:200px;padding:2px;font-family:"trebuchet ms",verdana,arial,sans-serif;font-size:12px;background:hsl(80, 100%, 96.2745098039%);border:1px solid #aaaa33;border-radius:2px;pointer-events:none;z-index:100;}#mermaid-svg .flowchartTitleText{text-anchor:middle;font-size:18px;fill:#333;}#mermaid-svg rect.text{fill:none;stroke-width:0;}#mermaid-svg .icon-shape,#mermaid-svg .image-shape{background-color:rgba(232,232,232, 0.8);text-align:center;}#mermaid-svg .icon-shape p,#mermaid-svg .image-shape p{background-color:rgba(232,232,232, 0.8);padding:2px;}#mermaid-svg .icon-shape rect,#mermaid-svg .image-shape rect{opacity:0.5;background-color:rgba(232,232,232, 0.8);fill:rgba(232,232,232, 0.8);}#mermaid-svg .label-icon{display:inline-block;height:1em;overflow:visible;vertical-align:-0.125em;}#mermaid-svg .node .label-icon path{fill:currentColor;stroke:revert;stroke-width:revert;}#mermaid-svg :root{--mermaid-font-family:"trebuchet ms",verdana,arial,sans-serif;}</style><g><marker id="mermaid-svg_flowchart-v2-pointEnd" class="marker flowchart-v2" viewBox="0 0 10 10" refX="5" refY="5" markerUnits="userSpaceOnUse" markerWidth="8" markerHeight="8" orient="auto"><path d="M 0 0 L 10 5 L 0 10 z" class="arrowMarkerPath" style="stroke-width: 1; stroke-dasharray: 1, 0;"/></marker><marker id="mermaid-svg_flowchart-v2-pointStart" class="marker flowchart-v2" viewBox="0 0 10 10" refX="4.5" refY="5" markerUnits="userSpaceOnUse" markerWidth="8" markerHeight="8" orient="auto"><path d="M 0 5 L 10 10 L 10 0 z" class="arrowMarkerPath" style="stroke-width: 1; stroke-dasharray: 1, 0;"/></marker><marker id="mermaid-svg_flowchart-v2-circleEnd" class="marker flowchart-v2" viewBox="0 0 10 10" refX="11" refY="5" markerUnits="userSpaceOnUse" markerWidth="11" markerHeight="11" orient="auto"><circle cx="5" cy="5" r="5" class="arrowMarkerPath" style="stroke-width: 1; stroke-dasharray: 1, 0;"/></marker><marker id="mermaid-svg_flowchart-v2-circleStart" class="marker flowchart-v2" viewBox="0 0 10 10" refX="-1" refY="5" markerUnits="userSpaceOnUse" markerWidth="11" markerHeight="11" orient="auto"><circle cx="5" cy="5" r="5" class="arrowMarkerPath" style="stroke-width: 1; stroke-dasharray: 1, 0;"/></marker><marker id="mermaid-svg_flowchart-v2-crossEnd" class="marker cross flowchart-v2" viewBox="0 0 11 11" refX="12" refY="5.2" markerUnits="userSpaceOnUse" markerWidth="11" markerHeight="11" orient="auto"><path d="M 1,1 l 9,9 M 10,1 l -9,9" class="arrowMarkerPath" style="stroke-width: 2; stroke-dasharray: 1, 0;"/></marker><marker id="mermaid-svg_flowchart-v2-crossStart" class="marker cross flowchart-v2" viewBox="0 0 11 11" refX="-1" refY="5.2" markerUnits="userSpaceOnUse" markerWidth="11" markerHeight="11" orient="auto"><path d="M 1,1 l 9,9 M 10,1 l -9,9" class="arrowMarkerPath" style="stroke-width: 2; stroke-dasharray: 1, 0;"/></marker><g class="root"><g class="clusters"><g class="cluster " id="NET" data-look="classic"><rect style="" x="4209.28125" y="8" width="1131.09375" height="172"/><g class="cluster-label " transform="translate(4679.671875, 8)"><foreignObject width="190.3125" height="24"><div xmlns="http://www.w3.org/1999/xhtml" style="display: table-cell; white-space: nowrap; line-height: 1.5; max-width: 200px; text-align: center;"><span class="nodeLabel "><p>Optional network telemetry</p></span></div></foreignObject></g></g><g class="cluster " id="LOCAL" data-look="classic"><rect style="" x="655.109375" y="200" width="4350.265625" height="716"/><g class="cluster-label " transform="translate(2730.2421875, 200)"><foreignObject width="200" height="48"><div xmlns="http://www.w3.org/1999/xhtml" style="display: table; white-space: break-spaces; line-height: 1.5; max-width: 200px; text-align: center; width: 200px;"><span class="nodeLabel "><p>ESP32 local autonomous control</p></span></div></foreignObject></g></g><g class="cluster " id="IO" data-look="classic"><rect style="" x="331.578125" y="936" width="2435.765625" height="148"/><g class="cluster-label " transform="translate(1449.4609375, 936)"><foreignObject width="200" height="48"><div xmlns="http://www.w3.org/1999/xhtml" style="display: table; white-space: break-spaces; line-height: 1.5; max-width: 200px; text-align: center; width: 200px;"><span class="nodeLabel "><p>ESP32 pins and electrical interfaces</p></span></div></foreignObject></g></g><g class="cluster " id="AQUA" data-look="classic"><rect style="" x="8" y="1104" width="2276.171875" height="276"/><g class="cluster-label " transform="translate(1076.2734375, 1104)"><foreignObject width="139.625" height="24"><div xmlns="http://www.w3.org/1999/xhtml" style="display: table-cell; white-space: nowrap; line-height: 1.5; max-width: 200px; text-align: center;"><span class="nodeLabel "><p>Aquarium hardware</p></span></div></foreignObject></g></g></g><g class="edgePaths"><path d="M281.578,1178L285.745,1178C289.911,1178,298.245,1178,306.578,1178C314.911,1178,323.245,1178,346.514,1156.5C369.783,1135,407.988,1092,427.09,1070.5L446.193,1049" id="L_WATER_ONEWIRE_0" class=" edge-thickness-normal edge-pattern-solid edge-thickness-normal edge-pattern-solid flowchart-link" style=";" data-edge="true" data-et="edge" data-id="L_WATER_ONEWIRE_0" data-points="W3sieCI6MjgxLjU3ODEyNSwieSI6MTE3OH0seyJ4IjozMDYuNTc4MTI1LCJ5IjoxMTc4fSx7IngiOjMzMS41NzgxMjUsInkiOjExNzh9LHsieCI6NDQ2LjE5MjgwMTMzOTI4NTcsInkiOjEwNDl9XQ=="/><path d="M281.578,1306L285.745,1306C289.911,1306,298.245,1306,306.578,1306C314.911,1306,323.245,1306,349.011,1263.167C374.778,1220.333,417.977,1134.667,439.577,1091.833L461.177,1049" id="L_AIR_ONEWIRE_0" class=" edge-thickness-normal edge-pattern-solid edge-thickness-normal edge-pattern-solid flowchart-link" style=";" data-edge="true" data-et="edge" data-id="L_AIR_ONEWIRE_0" data-points="W3sieCI6MjgxLjU3ODEyNSwieSI6MTMwNn0seyJ4IjozMDYuNTc4MTI1LCJ5IjoxMzA2fSx7IngiOjMzMS41NzgxMjUsInkiOjEzMDZ9LHsieCI6NDYxLjE3Njk5NTM1NDcyOTc0LCJ5IjoxMDQ5fV0="/><path d="M605.109,1010L609.276,1010C613.443,1010,621.776,1010,630.109,1010C638.443,1010,646.776,1010,671.064,970.926C695.352,931.852,735.594,853.704,755.715,814.63L775.836,775.556" id="L_ONEWIRE_SENSOR_0" class=" edge-thickness-normal edge-pattern-solid edge-thickness-normal edge-pattern-solid flowchart-link" style=";" data-edge="true" data-et="edge" data-id="L_ONEWIRE_SENSOR_0" data-points="W3sieCI6NjA1LjEwOTM3NSwieSI6MTAxMH0seyJ4Ijo2MzAuMTA5Mzc1LCJ5IjoxMDEwfSx7IngiOjY1NS4xMDkzNzUsInkiOjEwMTB9LHsieCI6Nzc3LjY2NzUxNDUzNDg4MzcsInkiOjc3Mn1d" marker-end="url(#mermaid-svg_flowchart-v2-pointEnd)"/><path d="M940.109,759.695L952.207,764.412C964.305,769.13,988.5,778.565,1012.029,783.282C1035.557,788,1058.419,788,1069.85,788L1081.281,788" id="L_SENSOR_CONTROL_0" class=" edge-thickness-normal edge-pattern-solid edge-thickness-normal edge-pattern-solid flowchart-link" style=";" data-edge="true" data-et="edge" data-id="L_SENSOR_CONTROL_0" data-points="W3sieCI6OTQwLjEwOTM3NSwieSI6NzU5LjY5NDUzNTQ5ODA1MjZ9LHsieCI6MTAxMi42OTUzMTI1LCJ5Ijo3ODh9LHsieCI6MTA4NS4yODEyNSwieSI6Nzg4fV0=" marker-end="url(#mermaid-svg_flowchart-v2-pointEnd)"/><path d="M4730.031,801L4709.581,809.667C4689.13,818.333,4648.229,835.667,4587.271,844.333C4526.313,853,4445.297,853,4378.956,853C4312.615,853,4260.948,853,4216.272,853C4171.596,853,4133.911,853,4082.629,853C4031.346,853,3966.466,853,3903.551,853C3840.635,853,3779.685,853,3714.438,853C3649.19,853,3579.646,853,3507.063,853C3434.479,853,3358.857,853,3279.749,853C3200.641,853,3118.047,853,3043.717,853C2969.388,853,2903.323,853,2858.638,853C2813.953,853,2790.648,853,2754.118,853C2717.589,853,2667.833,853,2604.775,853C2541.716,853,2465.354,853,2409.703,853C2354.052,853,2319.112,853,2276.617,853C2234.122,853,2184.073,853,2134.023,853C2083.974,853,2033.924,853,1989.729,853C1945.534,853,1907.193,853,1868.852,853C1830.51,853,1792.169,853,1750.492,853C1708.815,853,1663.802,853,1607.896,853C1551.99,853,1485.19,853,1437.368,848.572C1389.545,844.145,1360.7,835.29,1346.278,830.862L1331.855,826.435" id="L_PREFS_CONTROL_0" class=" edge-thickness-normal edge-pattern-solid edge-thickness-normal edge-pattern-solid flowchart-link" style=";" data-edge="true" data-et="edge" data-id="L_PREFS_CONTROL_0" data-points="W3sieCI6NDczMC4wMzE0MDE2OTkwMjksInkiOjgwMX0seyJ4Ijo0NjA3LjMyODEyNSwieSI6ODUzfSx7IngiOjQzNjQuMjgxMjUsInkiOjg1M30seyJ4Ijo0MjA5LjI4MTI1LCJ5Ijo4NTN9LHsieCI6NDA5Ni4yMjY1NjI1LCJ5Ijo4NTN9LHsieCI6MzkwMS41ODU5Mzc1LCJ5Ijo4NTN9LHsieCI6MzcxOC43MzQzNzUsInkiOjg1M30seyJ4IjozNTEwLjEwMTU2MjUsInkiOjg1M30seyJ4IjozMjgzLjIzNDM3NSwieSI6ODUzfSx7IngiOjMwMzUuNDUzMTI1LCJ5Ijo4NTN9LHsieCI6MjgzNy4yNTc4MTI1LCJ5Ijo4NTN9LHsieCI6Mjc2Ny4zNDM3NSwieSI6ODUzfSx7IngiOjI2MTguMDc4MTI1LCJ5Ijo4NTN9LHsieCI6MjM4OC45OTIxODc1LCJ5Ijo4NTN9LHsieCI6MjI4NC4xNzE4NzUsInkiOjg1M30seyJ4IjoyMTM0LjAyMzQzNzUsInkiOjg1M30seyJ4IjoxOTgzLjg3NSwieSI6ODUzfSx7IngiOjE4NjguODUxNTYyNSwieSI6ODUzfSx7IngiOjE3NTMuODI4MTI1LCJ5Ijo4NTN9LHsieCI6MTYxOC43ODkwNjI1LCJ5Ijo4NTN9LHsieCI6MTQxOC4zOTA2MjUsInkiOjg1M30seyJ4IjoxMzI4LjAzMTI1LCJ5Ijo4MjUuMjYwNzE4NzY2MTQyOH1d" marker-end="url(#mermaid-svg_flowchart-v2-pointEnd)"/><path d="M4494.281,687L4513.122,687C4531.964,687,4569.646,687,4606.683,691.717C4643.72,696.433,4680.111,705.866,4698.307,710.583L4716.503,715.299" id="L_SERIAL_PREFS_0" class=" edge-thickness-normal edge-pattern-solid edge-thickness-normal edge-pattern-solid flowchart-link" style=";" data-edge="true" data-et="edge" data-id="L_SERIAL_PREFS_0" data-points="W3sieCI6NDQ5NC4yODEyNSwieSI6Njg3fSx7IngiOjQ2MDcuMzI4MTI1LCJ5Ijo2ODd9LHsieCI6NDcyMC4zNzUsInkiOjcxNi4zMDI3OTY1Mjg0NDc0fV0=" marker-end="url(#mermaid-svg_flowchart-v2-pointEnd)"/><path d="M4287.992,750L4274.874,760.833C4261.755,771.667,4235.518,793.333,4203.557,804.167C4171.596,815,4133.911,815,4082.629,815C4031.346,815,3966.466,815,3903.551,815C3840.635,815,3779.685,815,3714.438,815C3649.19,815,3579.646,815,3507.063,815C3434.479,815,3358.857,815,3279.749,815C3200.641,815,3118.047,815,3043.717,815C2969.388,815,2903.323,815,2858.638,815C2813.953,815,2790.648,815,2754.118,815C2717.589,815,2667.833,815,2604.775,815C2541.716,815,2465.354,815,2409.703,815C2354.052,815,2319.112,815,2276.617,815C2234.122,815,2184.073,815,2134.023,815C2083.974,815,2033.924,815,1989.729,815C1945.534,815,1907.193,815,1868.852,815C1830.51,815,1792.169,815,1750.492,815C1708.815,815,1663.802,815,1607.896,815C1551.99,815,1485.19,815,1437.392,813.164C1389.593,811.328,1360.796,807.656,1346.398,805.82L1331.999,803.984" id="L_SERIAL_CONTROL_0" class=" edge-thickness-normal edge-pattern-solid edge-thickness-normal edge-pattern-solid flowchart-link" style=";" data-edge="true" data-et="edge" data-id="L_SERIAL_CONTROL_0" data-points="W3sieCI6NDI4Ny45OTIxODc1LCJ5Ijo3NTB9LHsieCI6NDIwOS4yODEyNSwieSI6ODE1fSx7IngiOjQwOTYuMjI2NTYyNSwieSI6ODE1fSx7IngiOjM5MDEuNTg1OTM3NSwieSI6ODE1fSx7IngiOjM3MTguNzM0Mzc1LCJ5Ijo4MTV9LHsieCI6MzUxMC4xMDE1NjI1LCJ5Ijo4MTV9LHsieCI6MzI4My4yMzQzNzUsInkiOjgxNX0seyJ4IjozMDM1LjQ1MzEyNSwieSI6ODE1fSx7IngiOjI4MzcuMjU3ODEyNSwieSI6ODE1fSx7IngiOjI3NjcuMzQzNzUsInkiOjgxNX0seyJ4IjoyNjE4LjA3ODEyNSwieSI6ODE1fSx7IngiOjIzODguOTkyMTg3NSwieSI6ODE1fSx7IngiOjIyODQuMTcxODc1LCJ5Ijo4MTV9LHsieCI6MjEzNC4wMjM0Mzc1LCJ5Ijo4MTV9LHsieCI6MTk4My44NzUsInkiOjgxNX0seyJ4IjoxODY4Ljg1MTU2MjUsInkiOjgxNX0seyJ4IjoxNzUzLjgyODEyNSwieSI6ODE1fSx7IngiOjE2MTguNzg5MDYyNSwieSI6ODE1fSx7IngiOjE0MTguMzkwNjI1LCJ5Ijo4MTV9LHsieCI6MTMyOC4wMzEyNSwieSI6ODAzLjQ3NzUyOTMzMzYyODV9XQ==" marker-end="url(#mermaid-svg_flowchart-v2-pointEnd)"/><path d="M1328.031,754.179L1343.091,749.982C1358.151,745.786,1388.271,737.393,1417.724,733.196C1447.177,729,1475.964,729,1490.357,729L1504.75,729" id="L_CONTROL_DRIVER_0" class=" edge-thickness-normal edge-pattern-solid edge-thickness-normal edge-pattern-solid flowchart-link" style=";" data-edge="true" data-et="edge" data-id="L_CONTROL_DRIVER_0" data-points="W3sieCI6MTMyOC4wMzEyNSwieSI6NzU0LjE3ODczMjE5Njg4NTh9LHsieCI6MTQxOC4zOTA2MjUsInkiOjcyOX0seyJ4IjoxNTA4Ljc1LCJ5Ijo3Mjl9XQ==" marker-end="url(#mermaid-svg_flowchart-v2-pointEnd)"/><path d="M1666.615,780L1681.151,795.5C1695.686,811,1724.757,842,1752.577,873.323C1780.397,904.646,1806.966,936.291,1820.251,952.114L1833.536,967.937" id="L_DRIVER_PWM_0" class=" edge-thickness-normal edge-pattern-solid edge-thickness-normal edge-pattern-solid flowchart-link" style=";" data-edge="true" data-et="edge" data-id="L_DRIVER_PWM_0" data-points="W3sieCI6MTY2Ni42MTUzOTcxMzU0MTY3LCJ5Ijo3ODB9LHsieCI6MTc1My44MjgxMjUsInkiOjg3M30seyJ4IjoxODM2LjEwNzY2NDIzMzU3NjUsInkiOjk3MX1d" marker-end="url(#mermaid-svg_flowchart-v2-pointEnd)"/><path d="M1958.875,1010L1963.042,1010C1967.208,1010,1975.542,1010,2000.164,1041.607C2024.787,1073.214,2065.698,1136.428,2086.154,1168.035L2106.61,1199.642" id="L_PWM_FAN_0" class=" edge-thickness-normal edge-pattern-solid edge-thickness-normal edge-pattern-solid flowchart-link" style=";" data-edge="true" data-et="edge" data-id="L_PWM_FAN_0" data-points="W3sieCI6MTk1OC44NzUsInkiOjEwMTB9LHsieCI6MTk4My44NzUsInkiOjEwMTB9LHsieCI6MjEwOC43ODI5Njc0MDMwMTcsInkiOjEyMDN9XQ==" marker-end="url(#mermaid-svg_flowchart-v2-pointEnd)"/><path d="M2259.172,1242L2263.339,1242C2267.505,1242,2275.839,1242,2297.475,1203.333C2319.112,1164.667,2354.052,1087.333,2388.326,1048.667C2422.599,1010,2456.206,1010,2473.009,1010L2489.813,1010" id="L_FAN_TACH_0" class=" edge-thickness-normal edge-pattern-solid edge-thickness-normal edge-pattern-solid flowchart-link" style=";" data-edge="true" data-et="edge" data-id="L_FAN_TACH_0" data-points="W3sieCI6MjI1OS4xNzE4NzUsInkiOjEyNDJ9LHsieCI6MjI4NC4xNzE4NzUsInkiOjEyNDJ9LHsieCI6MjM4OC45OTIxODc1LCJ5IjoxMDEwfSx7IngiOjI0OTMuODEyNSwieSI6MTAxMH1d" marker-end="url(#mermaid-svg_flowchart-v2-pointEnd)"/><path d="M2742.344,1010L2746.51,1010C2750.677,1010,2759.01,1010,2774.829,911.167C2790.648,812.333,2813.953,614.667,2838.816,515.833C2863.68,417,2890.102,417,2903.313,417L2916.523,417" id="L_TACH_RPM_0" class=" edge-thickness-normal edge-pattern-solid edge-thickness-normal edge-pattern-solid flowchart-link" style=";" data-edge="true" data-et="edge" data-id="L_TACH_RPM_0" data-points="W3sieCI6Mjc0Mi4zNDM3NSwieSI6MTAxMH0seyJ4IjoyNzY3LjM0Mzc1LCJ5IjoxMDEwfSx7IngiOjI4MzcuMjU3ODEyNSwieSI6NDE3fSx7IngiOjI5MjAuNTIzNDM3NSwieSI6NDE3fV0=" marker-end="url(#mermaid-svg_flowchart-v2-pointEnd)"/><path d="M1636.631,678L1656.164,622.167C1675.697,566.333,1714.762,454.667,1753.466,398.833C1792.169,343,1830.51,343,1868.852,343C1907.193,343,1945.534,343,1989.729,343C2033.924,343,2083.974,343,2134.023,343C2184.073,343,2234.122,343,2276.617,343C2319.112,343,2354.052,343,2409.703,343C2465.354,343,2541.716,343,2604.775,343C2667.833,343,2717.589,343,2754.118,343C2790.648,343,2813.953,343,2858.638,343C2903.323,343,2969.388,343,3043.717,343C3118.047,343,3200.641,343,3261.245,351.596C3321.85,360.191,3360.465,377.383,3379.773,385.978L3399.08,394.574" id="L_DRIVER_FAULTMON_0" class=" edge-thickness-normal edge-pattern-solid edge-thickness-normal edge-pattern-solid flowchart-link" style=";" data-edge="true" data-et="edge" data-id="L_DRIVER_FAULTMON_0" data-points="W3sieCI6MTYzNi42MzEwMTExNzIyNzk4LCJ5Ijo2Nzh9LHsieCI6MTc1My44MjgxMjUsInkiOjM0M30seyJ4IjoxODY4Ljg1MTU2MjUsInkiOjM0M30seyJ4IjoxOTgzLjg3NSwieSI6MzQzfSx7IngiOjIxMzQuMDIzNDM3NSwieSI6MzQzfSx7IngiOjIyODQuMTcxODc1LCJ5IjozNDN9LHsieCI6MjM4OC45OTIxODc1LCJ5IjozNDN9LHsieCI6MjYxOC4wNzgxMjUsInkiOjM0M30seyJ4IjoyNzY3LjM0Mzc1LCJ5IjozNDN9LHsieCI6MjgzNy4yNTc4MTI1LCJ5IjozNDN9LHsieCI6MzAzNS40NTMxMjUsInkiOjM0M30seyJ4IjozMjgzLjIzNDM3NSwieSI6MzQzfSx7IngiOjM0MDIuNzM0Mzc1LCJ5IjozOTYuMjAwNzMwMDUyNjg3OH1d" marker-end="url(#mermaid-svg_flowchart-v2-pointEnd)"/><path d="M3150.383,417L3172.525,417C3194.667,417,3238.951,417,3280.347,419.292C3321.744,421.583,3360.253,426.166,3379.508,428.458L3398.762,430.749" id="L_RPM_FAULTMON_0" class=" edge-thickness-normal edge-pattern-solid edge-thickness-normal edge-pattern-solid flowchart-link" style=";" data-edge="true" data-et="edge" data-id="L_RPM_FAULTMON_0" data-points="W3sieCI6MzE1MC4zODI4MTI1LCJ5Ijo0MTd9LHsieCI6MzI4My4yMzQzNzUsInkiOjQxN30seyJ4IjozNDAyLjczNDM3NSwieSI6NDMxLjIyMTk3NzM0MDgxNzU1fV0=" marker-end="url(#mermaid-svg_flowchart-v2-pointEnd)"/><path d="M3163.734,557L3183.651,557C3203.568,557,3243.401,557,3282.638,547.377C3321.874,537.754,3360.514,518.508,3379.834,508.885L3399.154,499.262" id="L_CURVE_FAULTMON_0" class=" edge-thickness-normal edge-pattern-solid edge-thickness-normal edge-pattern-solid flowchart-link" style=";" data-edge="true" data-et="edge" data-id="L_CURVE_FAULTMON_0" data-points="W3sieCI6MzE2My43MzQzNzUsInkiOjU1N30seyJ4IjozMjgzLjIzNDM3NSwieSI6NTU3fSx7IngiOjM0MDIuNzM0Mzc1LCJ5Ijo0OTcuNDc4MzkxMTI5MTcxMX1d" marker-end="url(#mermaid-svg_flowchart-v2-pointEnd)"/><path d="M1228.739,737L1260.348,664C1291.956,591,1355.173,445,1420.182,372C1485.19,299,1551.99,299,1607.896,299C1663.802,299,1708.815,299,1750.492,299C1792.169,299,1830.51,299,1868.852,299C1907.193,299,1945.534,299,1989.729,299C2033.924,299,2083.974,299,2134.023,299C2184.073,299,2234.122,299,2276.617,299C2319.112,299,2354.052,299,2409.703,299C2465.354,299,2541.716,299,2604.775,299C2667.833,299,2717.589,299,2754.118,299C2790.648,299,2813.953,299,2858.638,299C2903.323,299,2969.388,299,3043.717,299C3118.047,299,3200.641,299,3279.749,299C3358.857,299,3434.479,299,3507.063,299C3579.646,299,3649.19,299,3700.205,304.241C3751.221,309.482,3783.707,319.964,3799.95,325.206L3816.193,330.447" id="L_CONTROL_POLICY_0" class=" edge-thickness-normal edge-pattern-solid edge-thickness-normal edge-pattern-solid flowchart-link" style=";" data-edge="true" data-et="edge" data-id="L_CONTROL_POLICY_0" data-points="W3sieCI6MTIyOC43Mzg5NzYyMjY5OTM4LCJ5Ijo3Mzd9LHsieCI6MTQxOC4zOTA2MjUsInkiOjI5OX0seyJ4IjoxNjE4Ljc4OTA2MjUsInkiOjI5OX0seyJ4IjoxNzUzLjgyODEyNSwieSI6Mjk5fSx7IngiOjE4NjguODUxNTYyNSwieSI6Mjk5fSx7IngiOjE5ODMuODc1LCJ5IjoyOTl9LHsieCI6MjEzNC4wMjM0Mzc1LCJ5IjoyOTl9LHsieCI6MjI4NC4xNzE4NzUsInkiOjI5OX0seyJ4IjoyMzg4Ljk5MjE4NzUsInkiOjI5OX0seyJ4IjoyNjE4LjA3ODEyNSwieSI6Mjk5fSx7IngiOjI3NjcuMzQzNzUsInkiOjI5OX0seyJ4IjoyODM3LjI1NzgxMjUsInkiOjI5OX0seyJ4IjozMDM1LjQ1MzEyNSwieSI6Mjk5fSx7IngiOjMyODMuMjM0Mzc1LCJ5IjoyOTl9LHsieCI6MzUxMC4xMDE1NjI1LCJ5IjoyOTl9LHsieCI6MzcxOC43MzQzNzUsInkiOjI5OX0seyJ4IjozODIwLCJ5IjozMzEuNjc0OTgzOTc3NzgyNX1d" marker-end="url(#mermaid-svg_flowchart-v2-pointEnd)"/><path d="M3617.469,444L3634.346,444C3651.224,444,3684.979,444,3718.131,436.346C3751.283,428.691,3783.832,413.383,3800.106,405.729L3816.38,398.074" id="L_FAULTMON_POLICY_0" class=" edge-thickness-normal edge-pattern-solid edge-thickness-normal edge-pattern-solid flowchart-link" style=";" data-edge="true" data-et="edge" data-id="L_FAULTMON_POLICY_0" data-points="W3sieCI6MzYxNy40Njg3NSwieSI6NDQ0fSx7IngiOjM3MTguNzM0Mzc1LCJ5Ijo0NDR9LHsieCI6MzgyMCwieSI6Mzk2LjM3MjA1NzI1MjcyMzh9XQ==" marker-end="url(#mermaid-svg_flowchart-v2-pointEnd)"/><path d="M1225.668,737L1257.788,650.833C1289.909,564.667,1354.15,392.333,1419.67,306.167C1485.19,220,1551.99,220,1607.896,220C1663.802,220,1708.815,220,1750.492,220C1792.169,220,1830.51,220,1868.852,220C1907.193,220,1945.534,220,1989.729,220C2033.924,220,2083.974,220,2134.023,220C2184.073,220,2234.122,220,2276.617,220C2319.112,220,2354.052,220,2409.703,220C2465.354,220,2541.716,220,2604.775,220C2667.833,220,2717.589,220,2754.118,220C2790.648,220,2813.953,220,2858.638,220C2903.323,220,2969.388,220,3043.717,220C3118.047,220,3200.641,220,3279.749,220C3358.857,220,3434.479,220,3507.063,220C3579.646,220,3649.19,220,3714.438,220C3779.685,220,3840.635,220,3903.551,220C3966.466,220,4031.346,220,4082.629,220C4133.911,220,4171.596,220,4205.298,207.921C4239.001,195.841,4268.72,171.682,4283.58,159.603L4298.439,147.523" id="L_CONTROL_MQTT_0" class=" edge-thickness-normal edge-pattern-solid edge-thickness-normal edge-pattern-solid flowchart-link" style=";" data-edge="true" data-et="edge" data-id="L_CONTROL_MQTT_0" data-points="W3sieCI6MTIyNS42Njc2MTExMzU1NjM0LCJ5Ijo3Mzd9LHsieCI6MTQxOC4zOTA2MjUsInkiOjIyMH0seyJ4IjoxNjE4Ljc4OTA2MjUsInkiOjIyMH0seyJ4IjoxNzUzLjgyODEyNSwieSI6MjIwfSx7IngiOjE4NjguODUxNTYyNSwieSI6MjIwfSx7IngiOjE5ODMuODc1LCJ5IjoyMjB9LHsieCI6MjEzNC4wMjM0Mzc1LCJ5IjoyMjB9LHsieCI6MjI4NC4xNzE4NzUsInkiOjIyMH0seyJ4IjoyMzg4Ljk5MjE4NzUsInkiOjIyMH0seyJ4IjoyNjE4LjA3ODEyNSwieSI6MjIwfSx7IngiOjI3NjcuMzQzNzUsInkiOjIyMH0seyJ4IjoyODM3LjI1NzgxMjUsInkiOjIyMH0seyJ4IjozMDM1LjQ1MzEyNSwieSI6MjIwfSx7IngiOjMyODMuMjM0Mzc1LCJ5IjoyMjB9LHsieCI6MzUxMC4xMDE1NjI1LCJ5IjoyMjB9LHsieCI6MzcxOC43MzQzNzUsInkiOjIyMH0seyJ4IjozOTAxLjU4NTkzNzUsInkiOjIyMH0seyJ4Ijo0MDk2LjIyNjU2MjUsInkiOjIyMH0seyJ4Ijo0MjA5LjI4MTI1LCJ5IjoyMjB9LHsieCI6NDMwMS41NDMxNTQ3NjE5MDUsInkiOjE0NX1d" marker-end="url(#mermaid-svg_flowchart-v2-pointEnd)"/><path d="M3574.532,381L3598.566,357.5C3622.6,334,3670.667,287,3725.176,263.5C3779.685,240,3840.635,240,3903.551,240C3966.466,240,4031.346,240,4082.629,240C4133.911,240,4171.596,240,4206.763,224.624C4241.929,209.248,4274.578,178.495,4290.902,163.119L4307.226,147.743" id="L_FAULTMON_MQTT_0" class=" edge-thickness-normal edge-pattern-solid edge-thickness-normal edge-pattern-solid flowchart-link" style=";" data-edge="true" data-et="edge" data-id="L_FAULTMON_MQTT_0" data-points="W3sieCI6MzU3NC41MzIyODQwMDczNTMsInkiOjM4MX0seyJ4IjozNzE4LjczNDM3NSwieSI6MjQwfSx7IngiOjM5MDEuNTg1OTM3NSwieSI6MjQwfSx7IngiOjQwOTYuMjI2NTYyNSwieSI6MjQwfSx7IngiOjQyMDkuMjgxMjUsInkiOjI0MH0seyJ4Ijo0MzEwLjEzNzQxNDM4MzU2MiwieSI6MTQ1fV0=" marker-end="url(#mermaid-svg_flowchart-v2-pointEnd)"/><path d="M3983.172,333.269L4002.014,327.558C4020.857,321.846,4058.542,310.423,4096.227,304.712C4133.911,299,4171.596,299,4209.443,273.865C4247.29,248.73,4285.299,198.46,4304.303,173.326L4323.308,148.191" id="L_POLICY_MQTT_0" class=" edge-thickness-normal edge-pattern-solid edge-thickness-normal edge-pattern-solid flowchart-link" style=";" data-edge="true" data-et="edge" data-id="L_POLICY_MQTT_0" data-points="W3sieCI6Mzk4My4xNzE4NzUsInkiOjMzMy4yNjk0NDY4OTczMjY4fSx7IngiOjQwOTYuMjI2NTYyNSwieSI6Mjk5fSx7IngiOjQyMDkuMjgxMjUsInkiOjI5OX0seyJ4Ijo0MzI1LjcyMDI3NDM5MDI0MzUsInkiOjE0NX1d" marker-end="url(#mermaid-svg_flowchart-v2-pointEnd)"/><path d="M4464.992,94L4488.715,94C4512.438,94,4559.883,94,4605.031,94C4650.18,94,4693.031,94,4714.457,94L4735.883,94" id="L_MQTT_WIFI_0" class=" edge-thickness-normal edge-pattern-solid edge-thickness-normal edge-pattern-solid flowchart-link" style=";" data-edge="true" data-et="edge" data-id="L_MQTT_WIFI_0" data-points="W3sieCI6NDQ2NC45OTIxODc1LCJ5Ijo5NH0seyJ4Ijo0NjA3LjMyODEyNSwieSI6OTR9LHsieCI6NDczOS44ODI4MTI1LCJ5Ijo5NH1d" marker-end="url(#mermaid-svg_flowchart-v2-pointEnd)"/><path d="M4960.867,94L4968.285,94C4975.703,94,4990.539,94,5002.124,94C5013.708,94,5022.042,94,5029.708,94C5037.375,94,5044.375,94,5047.875,94L5051.375,94" id="L_WIFI_BROKER_0" class=" edge-thickness-normal edge-pattern-solid edge-thickness-normal edge-pattern-solid flowchart-link" style=";" data-edge="true" data-et="edge" data-id="L_WIFI_BROKER_0" data-points="W3sieCI6NDk2MC44NjcxODc1LCJ5Ijo5NH0seyJ4Ijo1MDA1LjM3NSwieSI6OTR9LHsieCI6NTAzMC4zNzUsInkiOjk0fSx7IngiOjUwNTUuMzc1LCJ5Ijo5NH1d" marker-end="url(#mermaid-svg_flowchart-v2-pointEnd)"/><path d="M3967.16,421L3988.671,441.667C4010.182,462.333,4053.204,503.667,4093.558,524.333C4133.911,545,4171.596,545,4204.319,557.716C4237.042,570.433,4264.803,595.865,4278.684,608.582L4292.564,621.298" id="L_POLICY_SERIAL_0" class=" edge-thickness-normal edge-pattern-solid edge-thickness-normal edge-pattern-solid flowchart-link" style=";" data-edge="true" data-et="edge" data-id="L_POLICY_SERIAL_0" data-points="W3sieCI6Mzk2Ny4xNjAwNTE4MDQ4MTI2LCJ5Ijo0MjF9LHsieCI6NDA5Ni4yMjY1NjI1LCJ5Ijo1NDV9LHsieCI6NDIwOS4yODEyNSwieSI6NTQ1fSx7IngiOjQyOTUuNTEzNjQ0MzY2MTk3LCJ5Ijo2MjR9XQ==" marker-end="url(#mermaid-svg_flowchart-v2-pointEnd)"/><path d="M940.109,666.648L952.207,662.706C964.305,658.765,988.5,650.883,1032.924,646.941C1077.349,643,1142.003,643,1209.618,643C1277.234,643,1347.813,643,1416.501,643C1485.19,643,1551.99,643,1607.896,643C1663.802,643,1708.815,643,1750.492,643C1792.169,643,1830.51,643,1868.852,643C1907.193,643,1945.534,643,1989.729,643C2033.924,643,2083.974,643,2134.023,643C2184.073,643,2234.122,643,2276.617,643C2319.112,643,2354.052,643,2409.703,643C2465.354,643,2541.716,643,2604.775,643C2667.833,643,2717.589,643,2754.118,643C2790.648,643,2813.953,643,2858.638,643C2903.323,643,2969.388,643,3043.717,643C3118.047,643,3200.641,643,3279.749,643C3358.857,643,3434.479,643,3507.063,643C3579.646,643,3649.19,643,3714.438,643C3779.685,643,3840.635,643,3903.551,643C3966.466,643,4031.346,643,4082.629,643C4133.911,643,4171.596,643,4193.964,644.001C4216.332,645.001,4223.383,647.003,4226.908,648.004L4230.433,649.004" id="L_SENSOR_SERIAL_0" class=" edge-thickness-normal edge-pattern-solid edge-thickness-normal edge-pattern-solid flowchart-link" style=";" data-edge="true" data-et="edge" data-id="L_SENSOR_SERIAL_0" data-points="W3sieCI6OTQwLjEwOTM3NSwieSI6NjY2LjY0NzYwMzI1NDc5MTV9LHsieCI6MTAxMi42OTUzMTI1LCJ5Ijo2NDN9LHsieCI6MTIwNi42NTYyNSwieSI6NjQzfSx7IngiOjE0MTguMzkwNjI1LCJ5Ijo2NDN9LHsieCI6MTYxOC43ODkwNjI1LCJ5Ijo2NDN9LHsieCI6MTc1My44MjgxMjUsInkiOjY0M30seyJ4IjoxODY4Ljg1MTU2MjUsInkiOjY0M30seyJ4IjoxOTgzLjg3NSwieSI6NjQzfSx7IngiOjIxMzQuMDIzNDM3NSwieSI6NjQzfSx7IngiOjIyODQuMTcxODc1LCJ5Ijo2NDN9LHsieCI6MjM4OC45OTIxODc1LCJ5Ijo2NDN9LHsieCI6MjYxOC4wNzgxMjUsInkiOjY0M30seyJ4IjoyNzY3LjM0Mzc1LCJ5Ijo2NDN9LHsieCI6MjgzNy4yNTc4MTI1LCJ5Ijo2NDN9LHsieCI6MzAzNS40NTMxMjUsInkiOjY0M30seyJ4IjozMjgzLjIzNDM3NSwieSI6NjQzfSx7IngiOjM1MTAuMTAxNTYyNSwieSI6NjQzfSx7IngiOjM3MTguNzM0Mzc1LCJ5Ijo2NDN9LHsieCI6MzkwMS41ODU5Mzc1LCJ5Ijo2NDN9LHsieCI6NDA5Ni4yMjY1NjI1LCJ5Ijo2NDN9LHsieCI6NDIwOS4yODEyNSwieSI6NjQzfSx7IngiOjQyMzQuMjgxMjUsInkiOjY1MC4wOTY3NzQxOTM1NDg0fV0=" marker-end="url(#mermaid-svg_flowchart-v2-pointEnd)"/><path d="M3556.22,507L3583.306,544C3610.392,581,3664.563,655,3722.124,692C3779.685,729,3840.635,729,3903.551,729C3966.466,729,4031.346,729,4082.629,729C4133.911,729,4171.596,729,4193.962,728.045C4216.328,727.091,4223.374,725.181,4226.897,724.227L4230.42,723.272" id="L_FAULTMON_SERIAL_0" class=" edge-thickness-normal edge-pattern-solid edge-thickness-normal edge-pattern-solid flowchart-link" style=";" data-edge="true" data-et="edge" data-id="L_FAULTMON_SERIAL_0" data-points="W3sieCI6MzU1Ni4yMjAzOTQ3MzY4NDIsInkiOjUwN30seyJ4IjozNzE4LjczNDM3NSwieSI6NzI5fSx7IngiOjM5MDEuNTg1OTM3NSwieSI6NzI5fSx7IngiOjQwOTYuMjI2NTYyNSwieSI6NzI5fSx7IngiOjQyMDkuMjgxMjUsInkiOjcyOX0seyJ4Ijo0MjM0LjI4MTI1LCJ5Ijo3MjIuMjI1ODA2NDUxNjEyOX1d" marker-end="url(#mermaid-svg_flowchart-v2-pointEnd)"/></g><g class="edgeLabels"><g class="edgeLabel"><g class="label" data-id="L_WATER_ONEWIRE_0" transform="translate(0, 0)"><foreignObject width="0" height="0"><div xmlns="http://www.w3.org/1999/xhtml" class="labelBkg" style="display: table-cell; white-space: nowrap; line-height: 1.5; max-width: 200px; text-align: center;"><span class="edgeLabel "></span></div></foreignObject></g></g><g class="edgeLabel"><g class="label" data-id="L_AIR_ONEWIRE_0" transform="translate(0, 0)"><foreignObject width="0" height="0"><div xmlns="http://www.w3.org/1999/xhtml" class="labelBkg" style="display: table-cell; white-space: nowrap; line-height: 1.5; max-width: 200px; text-align: center;"><span class="edgeLabel "></span></div></foreignObject></g></g><g class="edgeLabel"><g class="label" data-id="L_ONEWIRE_SENSOR_0" transform="translate(0, 0)"><foreignObject width="0" height="0"><div xmlns="http://www.w3.org/1999/xhtml" class="labelBkg" style="display: table-cell; white-space: nowrap; line-height: 1.5; max-width: 200px; text-align: center;"><span class="edgeLabel "></span></div></foreignObject></g></g><g class="edgeLabel" transform="translate(1012.6953125, 788)"><g class="label" data-id="L_SENSOR_CONTROL_0" transform="translate(-47.5859375, -12)"><foreignObject width="95.171875" height="24"><div xmlns="http://www.w3.org/1999/xhtml" class="labelBkg" style="display: table-cell; white-space: nowrap; line-height: 1.5; max-width: 200px; text-align: center;"><span class="edgeLabel "><p>ControlInputs</p></span></div></foreignObject></g></g><g class="edgeLabel" transform="translate(2837.2578125, 853)"><g class="label" data-id="L_PREFS_CONTROL_0" transform="translate(-44.9140625, -12)"><foreignObject width="89.828125" height="24"><div xmlns="http://www.w3.org/1999/xhtml" class="labelBkg" style="display: table-cell; white-space: nowrap; line-height: 1.5; max-width: 200px; text-align: center;"><span class="edgeLabel "><p>stored target</p></span></div></foreignObject></g></g><g class="edgeLabel" transform="translate(4607.328125, 687)"><g class="label" data-id="L_SERIAL_PREFS_0" transform="translate(-88.046875, -12)"><foreignObject width="176.09375" height="24"><div xmlns="http://www.w3.org/1999/xhtml" class="labelBkg" style="display: table-cell; white-space: nowrap; line-height: 1.5; max-width: 200px; text-align: center;"><span class="edgeLabel "><p>target/default commands</p></span></div></foreignObject></g></g><g class="edgeLabel" transform="translate(2618.078125, 815)"><g class="label" data-id="L_SERIAL_CONTROL_0" transform="translate(-77.375, -12)"><foreignObject width="154.75" height="24"><div xmlns="http://www.w3.org/1999/xhtml" class="labelBkg" style="display: table-cell; white-space: nowrap; line-height: 1.5; max-width: 200px; text-align: center;"><span class="edgeLabel "><p>diagnostic commands</p></span></div></foreignObject></g></g><g class="edgeLabel" transform="translate(1418.390625, 729)"><g class="label" data-id="L_CONTROL_DRIVER_0" transform="translate(-65.359375, -12)"><foreignObject width="130.71875" height="24"><div xmlns="http://www.w3.org/1999/xhtml" class="labelBkg" style="display: table-cell; white-space: nowrap; line-height: 1.5; max-width: 200px; text-align: center;"><span class="edgeLabel "><p>final PWM percent</p></span></div></foreignObject></g></g><g class="edgeLabel"><g class="label" data-id="L_DRIVER_PWM_0" transform="translate(0, 0)"><foreignObject width="0" height="0"><div xmlns="http://www.w3.org/1999/xhtml" class="labelBkg" style="display: table-cell; white-space: nowrap; line-height: 1.5; max-width: 200px; text-align: center;"><span class="edgeLabel "></span></div></foreignObject></g></g><g class="edgeLabel"><g class="label" data-id="L_PWM_FAN_0" transform="translate(0, 0)"><foreignObject width="0" height="0"><div xmlns="http://www.w3.org/1999/xhtml" class="labelBkg" style="display: table-cell; white-space: nowrap; line-height: 1.5; max-width: 200px; text-align: center;"><span class="edgeLabel "></span></div></foreignObject></g></g><g class="edgeLabel"><g class="label" data-id="L_FAN_TACH_0" transform="translate(0, 0)"><foreignObject width="0" height="0"><div xmlns="http://www.w3.org/1999/xhtml" class="labelBkg" style="display: table-cell; white-space: nowrap; line-height: 1.5; max-width: 200px; text-align: center;"><span class="edgeLabel "></span></div></foreignObject></g></g><g class="edgeLabel"><g class="label" data-id="L_TACH_RPM_0" transform="translate(0, 0)"><foreignObject width="0" height="0"><div xmlns="http://www.w3.org/1999/xhtml" class="labelBkg" style="display: table-cell; white-space: nowrap; line-height: 1.5; max-width: 200px; text-align: center;"><span class="edgeLabel "></span></div></foreignObject></g></g><g class="edgeLabel" transform="translate(2388.9921875, 343)"><g class="label" data-id="L_DRIVER_FAULTMON_0" transform="translate(-47.578125, -12)"><foreignObject width="95.15625" height="24"><div xmlns="http://www.w3.org/1999/xhtml" class="labelBkg" style="display: table-cell; white-space: nowrap; line-height: 1.5; max-width: 200px; text-align: center;"><span class="edgeLabel "><p>applied PWM</p></span></div></foreignObject></g></g><g class="edgeLabel" transform="translate(3283.234375, 417)"><g class="label" data-id="L_RPM_FAULTMON_0" transform="translate(-55.578125, -12)"><foreignObject width="111.15625" height="24"><div xmlns="http://www.w3.org/1999/xhtml" class="labelBkg" style="display: table-cell; white-space: nowrap; line-height: 1.5; max-width: 200px; text-align: center;"><span class="edgeLabel "><p>measured RPM</p></span></div></foreignObject></g></g><g class="edgeLabel" transform="translate(3283.234375, 557)"><g class="label" data-id="L_CURVE_FAULTMON_0" transform="translate(-94.5, -12)"><foreignObject width="189" height="24"><div xmlns="http://www.w3.org/1999/xhtml" class="labelBkg" style="display: table-cell; white-space: nowrap; line-height: 1.5; max-width: 200px; text-align: center;"><span class="edgeLabel "><p>expected RPM + tolerance</p></span></div></foreignObject></g></g><g class="edgeLabel" transform="translate(2388.9921875, 299)"><g class="label" data-id="L_CONTROL_POLICY_0" transform="translate(-79.8203125, -12)"><foreignObject width="159.640625" height="24"><div xmlns="http://www.w3.org/1999/xhtml" class="labelBkg" style="display: table-cell; white-space: nowrap; line-height: 1.5; max-width: 200px; text-align: center;"><span class="edgeLabel "><p>sensor validity + mode</p></span></div></foreignObject></g></g><g class="edgeLabel" transform="translate(3718.734375, 444)"><g class="label" data-id="L_FAULTMON_POLICY_0" transform="translate(-76.265625, -12)"><foreignObject width="152.53125" height="24"><div xmlns="http://www.w3.org/1999/xhtml" class="labelBkg" style="display: table-cell; white-space: nowrap; line-height: 1.5; max-width: 200px; text-align: center;"><span class="edgeLabel "><p>fan plausibility + latch</p></span></div></foreignObject></g></g><g class="edgeLabel"><g class="label" data-id="L_CONTROL_MQTT_0" transform="translate(0, 0)"><foreignObject width="0" height="0"><div xmlns="http://www.w3.org/1999/xhtml" class="labelBkg" style="display: table-cell; white-space: nowrap; line-height: 1.5; max-width: 200px; text-align: center;"><span class="edgeLabel "></span></div></foreignObject></g></g><g class="edgeLabel"><g class="label" data-id="L_FAULTMON_MQTT_0" transform="translate(0, 0)"><foreignObject width="0" height="0"><div xmlns="http://www.w3.org/1999/xhtml" class="labelBkg" style="display: table-cell; white-space: nowrap; line-height: 1.5; max-width: 200px; text-align: center;"><span class="edgeLabel "></span></div></foreignObject></g></g><g class="edgeLabel"><g class="label" data-id="L_POLICY_MQTT_0" transform="translate(0, 0)"><foreignObject width="0" height="0"><div xmlns="http://www.w3.org/1999/xhtml" class="labelBkg" style="display: table-cell; white-space: nowrap; line-height: 1.5; max-width: 200px; text-align: center;"><span class="edgeLabel "></span></div></foreignObject></g></g><g class="edgeLabel"><g class="label" data-id="L_MQTT_WIFI_0" transform="translate(0, 0)"><foreignObject width="0" height="0"><div xmlns="http://www.w3.org/1999/xhtml" class="labelBkg" style="display: table-cell; white-space: nowrap; line-height: 1.5; max-width: 200px; text-align: center;"><span class="edgeLabel "></span></div></foreignObject></g></g><g class="edgeLabel"><g class="label" data-id="L_WIFI_BROKER_0" transform="translate(0, 0)"><foreignObject width="0" height="0"><div xmlns="http://www.w3.org/1999/xhtml" class="labelBkg" style="display: table-cell; white-space: nowrap; line-height: 1.5; max-width: 200px; text-align: center;"><span class="edgeLabel "></span></div></foreignObject></g></g><g class="edgeLabel" transform="translate(4096.2265625, 545)"><g class="label" data-id="L_POLICY_SERIAL_0" transform="translate(-88.0546875, -24)"><foreignObject width="176.109375" height="48"><div xmlns="http://www.w3.org/1999/xhtml" class="labelBkg" style="display: table-cell; white-space: nowrap; line-height: 1.5; max-width: 200px; text-align: center;"><span class="edgeLabel "><p>alarm, degraded cooling,<br />service required</p></span></div></foreignObject></g></g><g class="edgeLabel" transform="translate(2388.9921875, 643)"><g class="label" data-id="L_SENSOR_SERIAL_0" transform="translate(-59.125, -24)"><foreignObject width="118.25" height="48"><div xmlns="http://www.w3.org/1999/xhtml" class="labelBkg" style="display: table-cell; white-space: nowrap; line-height: 1.5; max-width: 200px; text-align: center;"><span class="edgeLabel "><p>ROMs, samples,<br />presence pulse</p></span></div></foreignObject></g></g><g class="edgeLabel" transform="translate(3901.5859375, 729)"><g class="label" data-id="L_FAULTMON_SERIAL_0" transform="translate(-60.0234375, -12)"><foreignObject width="120.046875" height="24"><div xmlns="http://www.w3.org/1999/xhtml" class="labelBkg" style="display: table-cell; white-space: nowrap; line-height: 1.5; max-width: 200px; text-align: center;"><span class="edgeLabel "><p>RPM diagnostics</p></span></div></foreignObject></g></g></g><g class="nodes"><g class="node default  " id="flowchart-WATER-0" transform="translate(157.2890625, 1178)"><rect class="basic label-container" style="" x="-124.2890625" y="-39" width="248.578125" height="78"/><g class="label" style="" transform="translate(-94.2890625, -24)"><rect/><foreignObject width="188.578125" height="48"><div xmlns="http://www.w3.org/1999/xhtml" style="display: table-cell; white-space: nowrap; line-height: 1.5; max-width: 200px; text-align: center;"><span class="nodeLabel "><p>DS18B20 water sensor<br />ROM 28333844050000CB</p></span></div></foreignObject></g></g><g class="node default  " id="flowchart-AIR-1" transform="translate(157.2890625, 1306)"><rect class="basic label-container" style="" x="-124.2890625" y="-39" width="248.578125" height="78"/><g class="label" style="" transform="translate(-94.2890625, -24)"><rect/><foreignObject width="188.578125" height="48"><div xmlns="http://www.w3.org/1999/xhtml" style="display: table-cell; white-space: nowrap; line-height: 1.5; max-width: 200px; text-align: center;"><span class="nodeLabel "><p>DS18B20 air sensor<br />ROM 28244644050000DA</p></span></div></foreignObject></g></g><g class="node default  " id="flowchart-FAN-2" transform="translate(2134.0234375, 1242)"><rect class="basic label-container" style="" x="-125.1484375" y="-39" width="250.296875" height="78"/><g class="label" style="" transform="translate(-95.1484375, -24)"><rect/><foreignObject width="190.296875" height="48"><div xmlns="http://www.w3.org/1999/xhtml" style="display: table-cell; white-space: nowrap; line-height: 1.5; max-width: 200px; text-align: center;"><span class="nodeLabel "><p>Noctua NF-S12A PWM fan<br />12 V power</p></span></div></foreignObject></g></g><g class="node default  " id="flowchart-ONEWIRE-3" transform="translate(480.84375, 1010)"><rect class="basic label-container" style="" x="-124.265625" y="-39" width="248.53125" height="78"/><g class="label" style="" transform="translate(-94.265625, -24)"><rect/><foreignObject width="188.53125" height="48"><div xmlns="http://www.w3.org/1999/xhtml" style="display: table-cell; white-space: nowrap; line-height: 1.5; max-width: 200px; text-align: center;"><span class="nodeLabel "><p>Shared 1-Wire bus<br />GPIO33, 3.3 kOhm pull-up</p></span></div></foreignObject></g></g><g class="node default  " id="flowchart-PWM-4" transform="translate(1868.8515625, 1010)"><rect class="basic label-container" style="" x="-90.0234375" y="-39" width="180.046875" height="78"/><g class="label" style="" transform="translate(-60.0234375, -24)"><rect/><foreignObject width="120.046875" height="48"><div xmlns="http://www.w3.org/1999/xhtml" style="display: table-cell; white-space: nowrap; line-height: 1.5; max-width: 200px; text-align: center;"><span class="nodeLabel "><p>Fan PWM output<br />GPIO25, 25 kHz</p></span></div></foreignObject></g></g><g class="node default  " id="flowchart-TACH-5" transform="translate(2618.078125, 1010)"><rect class="basic label-container" style="" x="-124.265625" y="-39" width="248.53125" height="78"/><g class="label" style="" transform="translate(-94.265625, -24)"><rect/><foreignObject width="188.53125" height="48"><div xmlns="http://www.w3.org/1999/xhtml" style="display: table-cell; white-space: nowrap; line-height: 1.5; max-width: 200px; text-align: center;"><span class="nodeLabel "><p>Fan tach input<br />GPIO26, 3.3 kOhm pull-up</p></span></div></foreignObject></g></g><g class="node default  " id="flowchart-SENSOR-6" transform="translate(810.109375, 709)"><rect class="basic label-container" style="" x="-130" y="-63" width="260" height="126"/><g class="label" style="" transform="translate(-100, -48)"><rect/><foreignObject width="200" height="96"><div xmlns="http://www.w3.org/1999/xhtml" style="display: table; white-space: break-spaces; line-height: 1.5; max-width: 200px; text-align: center; width: 200px;"><span class="nodeLabel "><p>SensorManager<br />2 s sample interval<br />non-blocking DS18B20 conversion</p></span></div></foreignObject></g></g><g class="node default  " id="flowchart-CONTROL-7" transform="translate(1206.65625, 788)"><rect class="basic label-container" style="" x="-121.375" y="-51" width="242.75" height="102"/><g class="label" style="" transform="translate(-91.375, -36)"><rect/><foreignObject width="182.75" height="72"><div xmlns="http://www.w3.org/1999/xhtml" style="display: table-cell; white-space: nowrap; line-height: 1.5; max-width: 200px; text-align: center;"><span class="nodeLabel "><p>ControlEngine<br />target validation<br />water demand + air assist</p></span></div></foreignObject></g></g><g class="node default  " id="flowchart-DRIVER-8" transform="translate(1618.7890625, 729)"><rect class="basic label-container" style="" x="-110.0390625" y="-51" width="220.078125" height="102"/><g class="label" style="" transform="translate(-80.0390625, -36)"><rect/><foreignObject width="160.078125" height="72"><div xmlns="http://www.w3.org/1999/xhtml" style="display: table-cell; white-space: nowrap; line-height: 1.5; max-width: 200px; text-align: center;"><span class="nodeLabel "><p>FanDriver<br />PWM command<br />40% start boost for 2 s</p></span></div></foreignObject></g></g><g class="node default  " id="flowchart-RPM-9" transform="translate(3035.453125, 417)"><rect class="basic label-container" style="" x="-114.9296875" y="-39" width="229.859375" height="78"/><g class="label" style="" transform="translate(-84.9296875, -24)"><rect/><foreignObject width="169.859375" height="48"><div xmlns="http://www.w3.org/1999/xhtml" style="display: table-cell; white-space: nowrap; line-height: 1.5; max-width: 200px; text-align: center;"><span class="nodeLabel "><p>RpmMonitor<br />1 s tach sample window</p></span></div></foreignObject></g></g><g class="node default  " id="flowchart-CURVE-10" transform="translate(3035.453125, 557)"><rect class="basic label-container" style="" x="-128.28125" y="-51" width="256.5625" height="102"/><g class="label" style="" transform="translate(-98.28125, -36)"><rect/><foreignObject width="196.5625" height="72"><div xmlns="http://www.w3.org/1999/xhtml" style="display: table-cell; white-space: nowrap; line-height: 1.5; max-width: 200px; text-align: center;"><span class="nodeLabel "><p>FanCurve<br />expected RPM interpolation<br />plausibility tolerance</p></span></div></foreignObject></g></g><g class="node default  " id="flowchart-FAULTMON-11" transform="translate(3510.1015625, 444)"><rect class="basic label-container" style="" x="-107.3671875" y="-63" width="214.734375" height="126"/><g class="label" style="" transform="translate(-77.3671875, -48)"><rect/><foreignObject width="154.734375" height="96"><div xmlns="http://www.w3.org/1999/xhtml" style="display: table-cell; white-space: nowrap; line-height: 1.5; max-width: 200px; text-align: center;"><span class="nodeLabel "><p>FaultMonitor<br />5 s settling<br />3 mismatches to latch<br />3 matches to recover</p></span></div></foreignObject></g></g><g class="node default  " id="flowchart-POLICY-12" transform="translate(3901.5859375, 358)"><rect class="basic label-container" style="" x="-81.5859375" y="-63" width="163.171875" height="126"/><g class="label" style="" transform="translate(-51.5859375, -48)"><rect/><foreignObject width="103.171875" height="96"><div xmlns="http://www.w3.org/1999/xhtml" style="display: table-cell; white-space: nowrap; line-height: 1.5; max-width: 200px; text-align: center;"><span class="nodeLabel "><p>FaultPolicy<br />alarm code<br />severity<br />local response</p></span></div></foreignObject></g></g><g class="node default  " id="flowchart-PREFS-13" transform="translate(4850.375, 750)"><rect class="basic label-container" style="" x="-130" y="-51" width="260" height="102"/><g class="label" style="" transform="translate(-100, -36)"><rect/><foreignObject width="200" height="72"><div xmlns="http://www.w3.org/1999/xhtml" style="display: table; white-space: break-spaces; line-height: 1.5; max-width: 200px; text-align: center; width: 200px;"><span class="nodeLabel "><p>Preferences / NVS<br />persisted target temperature</p></span></div></foreignObject></g></g><g class="node default  " id="flowchart-SERIAL-14" transform="translate(4364.28125, 687)"><rect class="basic label-container" style="" x="-130" y="-63" width="260" height="126"/><g class="label" style="" transform="translate(-100, -48)"><rect/><foreignObject width="200" height="96"><div xmlns="http://www.w3.org/1999/xhtml" style="display: table; white-space: break-spaces; line-height: 1.5; max-width: 200px; text-align: center; width: 200px;"><span class="nodeLabel "><p>Serial service console<br />status, target, default,<br />airassist, faults, network, publish</p></span></div></foreignObject></g></g><g class="node default  " id="flowchart-WIFI-15" transform="translate(4850.375, 94)"><rect class="basic label-container" style="" x="-110.4921875" y="-39" width="220.984375" height="78"/><g class="label" style="" transform="translate(-80.4921875, -24)"><rect/><foreignObject width="160.984375" height="48"><div xmlns="http://www.w3.org/1999/xhtml" style="display: table-cell; white-space: nowrap; line-height: 1.5; max-width: 200px; text-align: center;"><span class="nodeLabel "><p>Wi-Fi station<br />10 s reconnect interval</p></span></div></foreignObject></g></g><g class="node default  " id="flowchart-MQTT-16" transform="translate(4364.28125, 94)"><rect class="basic label-container" style="" x="-100.7109375" y="-51" width="201.421875" height="102"/><g class="label" style="" transform="translate(-70.7109375, -36)"><rect/><foreignObject width="141.421875" height="72"><div xmlns="http://www.w3.org/1999/xhtml" style="display: table-cell; white-space: nowrap; line-height: 1.5; max-width: 200px; text-align: center;"><span class="nodeLabel "><p>MqttTelemetry<br />10 s publish interval<br />availability last will</p></span></div></foreignObject></g></g><g class="node default  " id="flowchart-BROKER-17" transform="translate(5185.375, 94)"><rect class="basic label-container" style="" x="-130" y="-51" width="260" height="102"/><g class="label" style="" transform="translate(-100, -36)"><rect/><foreignObject width="200" height="72"><div xmlns="http://www.w3.org/1999/xhtml" style="display: table; white-space: break-spaces; line-height: 1.5; max-width: 200px; text-align: center; width: 200px;"><span class="nodeLabel "><p>MQTT broker / FHEM<br />state, diagnostics, status topics</p></span></div></foreignObject></g></g></g></g></g></svg>